<svg xmlns="http://www.w3.org/2000/svg" version="1.1" viewBox="-5.0 -10.0 110.0 135.0">
 <path d="m13.344 48.715h3.2812c-1.7148-14.309 3.1055-25.586 3.5234-26.523 0.066406-0.16016 0.15625-0.32031 0.26172-0.47266 0.74219-1.0273 2.1797-1.2539 3.2031-0.51172 1.0586 0.76953 2.0859 1.5508 3.082 2.3398 0.55078-3.1133 1.4531-6.1406 2.6289-9.0312 1.8633-4.6055 4.418-8.8828 7.3203-12.621 0.75781-0.97656 2.1406-1.1758 3.1367-0.46875 0.019531 0.015625 6.4062 4.5508 12.82 13.152 2.0742-3.7031 3.8086-5.8008 3.8164-5.8125l0.007812 0.003906c0.097657-0.11719 0.20703-0.22656 0.32812-0.32812 0.98047-0.79688 2.4219-0.64844 3.2227 0.33203 2.707 3.3398 4.9922 6.6211 6.918 9.8086 1.5117 2.5 2.8125 4.957 3.9297 7.3438 1.8398-1.5898 3.8203-3.168 5.957-4.7148 1.0273-0.74219 2.4609-0.51172 3.2031 0.51172 0.10938 0.14844 0.19531 0.30469 0.26172 0.46875 0.41797 0.9375 5.2383 12.215 3.5234 26.523h2.8867c1.2695 0 2.2969 1.0273 2.2969 2.2969v18.352c0 1.2695-1.0273 2.2969-2.2969 2.2969h-3.4883l-8.9297 25.617c-0.25391 0.98828-1.1562 1.7188-2.2227 1.7188h-44.027v-0.007813c-0.94922 0-1.832-0.58984-2.1641-1.5352l-8.9883-25.793h-3.4883c-1.2695 0-2.2969-1.0273-2.2969-2.2969v-18.352c0-1.2695 1.0273-2.2969 2.2969-2.2969zm36.938-29.512c-4.4062-6.3633-8.9688-10.613-11.395-12.652-2.0781 2.9492-3.9102 6.2148-5.3125 9.6836-1.3945 3.4453-2.3633 7.0859-2.7383 10.809 1.0625 0.95703 2.0742 1.9141 3.0391 2.8711 1.0234-4.4297 2.2422-7.2734 2.4414-7.7266 0.066406-0.16016 0.15625-0.32031 0.26562-0.47266 0.74219-1.0273 2.1797-1.2539 3.2031-0.51172 2.7852 2.0195 5.3086 4.0859 7.5938 6.1719 0.82031-3.0469 1.8438-5.7891 2.9062-8.1797zm21.328 12.172c-0.03125 0.03125-0.0625 0.058594-0.097656 0.089844-2.1406 2-4.0508 4.0039-5.75 5.9922-2.1523 2.5117-3.9727 4.9961-5.5156 7.3906-0.027344 0.046875-0.058594 0.089844-0.085938 0.13281-0.81641 1.2734-1.5508 2.5195-2.2188 3.7305h21.195c1.2891-9.7266-0.74219-17.922-2.082-21.977-1.9648 1.5312-3.7773 3.0859-5.4492 4.6367zm-34.043 3.5469c-0.007812 0.097656-0.019531 0.19531-0.042968 0.28906-0.55469 3.8516-0.77734 8.4727-0.10938 13.504h15.355c0.80859-1.6094 1.7266-3.2852 2.7812-5.0078-2.0586-3.0547-4.5703-6.2266-7.6328-9.4062-2.4375-2.5273-5.2266-5.0664-8.4258-7.5586-0.62891 1.9062-1.4141 4.7227-1.9336 8.1836z"/>
<text x="0.0" y="117.5" font-size="5.0" font-weight="bold" font-family="Arbeit Regular, Helvetica, Arial-Unicode, Arial, Sans-serif" fill="#000000">Created by PEBIAN</text><text x="0.0" y="122.5" font-size="5.0" font-weight="bold" font-family="Arbeit Regular, Helvetica, Arial-Unicode, Arial, Sans-serif" fill="#000000">from Noun Project</text></svg>